<svg width="26" height="18" viewBox="0 0 26 18" fill="none" xmlns="http://www.w3.org/2000/svg">
<path d="M24.6 8H1C0.4477 8 0 8.4477 0 9C0 9.5523 0.4477 10 1 10H24.6C25.1523 10 25.6 9.5523 25.6 9C25.6 8.4477 25.1523 8 24.6 8Z" fill="#0A0A0A"/>
<path d="M24.6 0H1C0.4477 0 0 0.4477 0 1C0 1.5523 0.4477 2 1 2H24.6C25.1523 2 25.6 1.5523 25.6 1C25.6 0.4477 25.1523 0 24.6 0Z" fill="#0A0A0A"/>
<path d="M24.6 16H1C0.4477 16 0 16.4477 0 17C0 17.5523 0.4477 18 1 18H24.6C25.1523 18 25.6 17.5523 25.6 17C25.6 16.4477 25.1523 16 24.6 16Z" fill="#0A0A0A"/>
</svg>
